<?xml version="1.0" encoding="utf-8"?>
<!-- Generator: Adobe Illustrator 26.2.1, SVG Export Plug-In . SVG Version: 6.00 Build 0)  -->
<svg version="1.2" baseProfile="tiny" id="Layer_1" xmlns="http://www.w3.org/2000/svg" xmlns:xlink="http://www.w3.org/1999/xlink"
	 x="0px" y="0px" viewBox="0 0 457 149" overflow="visible" xml:space="preserve">
<g>
	<g>
		<path id="D_00000150822414887693513930000016095876146997947313_" fill="#498CCA" d="M62.36,21.88v109.71h52.48
			c23.08,0,52.64-14.71,52.64-54.92c0-43.97-34.36-54.79-65.75-54.79H62.36z M101.14,55.77h6.76c10.6,0,19.63,9.14,19.77,21.44
			c0,0.01,0,0.02,0,0.03c-0.14,12.3-8.2,21.41-18.8,21.41h-7.74V55.77z"/>
		<path id="L1_00000118379075051950305930000010984347042305170367_" fill="#498CCA" d="M291.77,21.88V131.6h72.65V96.91h-34.21
			V21.88H291.77z"/>
		<path id="O_00000116214100070959074530000000558140527514183344_" fill="#498CCA" d="M257.25,38.54l-53.66,33.83l-9.35-6.29
			l0.02,0l54.89-34.96l0.1,0.07l-25.1-15.95l-95.6,60.8l96.09,60.64l94.94-60.49l-27.49-16.79l-54.73,34.48l-9.2-6.26l53.19-33.79
			L257.25,38.54z"/>
		<path id="L2_00000173877938823095608980000002280528198792417421_" fill="#498CCA" d="M371.33,21.87v109.6h72.65V96.91h-34.21
			V21.87H371.33z"/>
		<path id="T_00000094596479105100613580000001543836698454615170_" fill="#498CCA" d="M428.83,21.7h6.46v1.54h-2.37v6.95h-1.71
			v-6.95h-2.37V21.7z"/>
		<path id="M_00000093873189548612390770000011737983339117155499_" fill="#498CCA" d="M439.8,29.18l-2.07-5.13v6.05h-1.59v-8.4
			h2.62l1.81,5.11l1.81-5.11H445v8.4h-1.59v-6.05l-2.07,5.13H439.8z"/>
	</g>
	<circle fill="#498CCA" cx="34.23" cy="40.63" r="18.74"/>
	<rect x="15.48" y="68.08" fill="#498CCA" width="37.48" height="63.48"/>
</g>
</svg>
